<svg id="Layer_1" data-name="Layer 1" xmlns="http://www.w3.org/2000/svg" width="100" height="100" viewBox="0 0 75 75">
  <defs>
    <style>
.cls-1{fill:#050303;}
</style>
  </defs>
  <title>Declaration</title>
  <path d="M75,10.69a2,2,0,0,1-2,1c-3,0-6,0-8.94,0h-.78v.85q0,16.56,0,33.1v.59a1.49,1.49,0,0,1-1.49,1.63,1.46,1.46,0,0,1-1.43-1.61c0-1.49,0-3,0-4.46V11.72h-35c-1.39,0-1.88-.49-1.88-1.9V7.4a4.39,4.39,0,1,0-8.78,0q0,19.18,0,38.37V61.25c0,2-.16,2.63-1.36,4.91H40.82c0-1.3,0-2.61,0-3.92a2.26,2.26,0,0,0-.8-1.89,10.11,10.11,0,0,1-2.11-11.77,10.3,10.3,0,0,1,10.32-5.76,10.18,10.18,0,0,1,9,8.22,10,10,0,0,1-4.13,10.34,1.15,1.15,0,0,0-.54,1.07c0,1.22,0,2.44,0,3.83a36.45,36.45,0,0,0,4.6-.27,4.17,4.17,0,0,0,3.19-4c0-.75,0-1.51,0-2.27a1.48,1.48,0,0,1,1.47-1.58,1.45,1.45,0,0,1,1.45,1.58,13.14,13.14,0,0,1-.4,4.5,7.31,7.31,0,0,1-6.73,4.89c-1.16,0-2.33,0-3.6,0,0,1.29,0,2.53,0,3.76a2.11,2.11,0,0,1-1,2.1h-.88l-4-2.63L42.77,75h-.88a1.76,1.76,0,0,1-1.08-1.88c0-1.3,0-2.62,0-4H7.43a7.33,7.33,0,0,1-7.06-5c-.14-.41-.25-.83-.37-1.25V58.45a2,2,0,0,1,2-1c3,0,6,0,8.93,0h.8V7.57A7.07,7.07,0,0,1,15,1.29,18.12,18.12,0,0,1,18,0H68.7A1.44,1.44,0,0,0,69,.13a6.8,6.8,0,0,1,4.7,3.13A20.52,20.52,0,0,1,75,6.3ZM26.45,8.74H72.07V7.67A4.42,4.42,0,0,0,67.3,2.93H25.71c-.22,0-.45,0-.61,0a21.13,21.13,0,0,1,1.06,2.74A22.4,22.4,0,0,1,26.45,8.74ZM54.49,53a7.32,7.32,0,1,0-7.29,7.34A7.35,7.35,0,0,0,54.49,53ZM3,60.38c-.22,2.15.15,4,2.11,5.19a4.13,4.13,0,0,0,4.69-.13c1.81-1.21,2.12-3,1.9-5.06ZM49.58,70.77V63a10.7,10.7,0,0,1-5.78-.25v8L45,69.93c1.62-1.08,1.66-1.08,3.25,0Z"/>
  <path d="M37.51,32.23H19.64a5.35,5.35,0,0,1-.8,0,1.45,1.45,0,0,1-1.26-1.47,1.47,1.47,0,0,1,1.32-1.42,4.85,4.85,0,0,1,.66,0H55.43a4.85,4.85,0,0,1,.66,0,1.46,1.46,0,0,1,0,2.91c-.24,0-.49,0-.73,0Z"/>
  <path d="M37.49,35.16H55.42a4.45,4.45,0,0,1,.73,0,1.47,1.47,0,0,1,1.27,1.46,1.48,1.48,0,0,1-1.25,1.42,4.46,4.46,0,0,1-.73,0H19.29c-1.05,0-1.72-.6-1.71-1.49a1.49,1.49,0,0,1,1.68-1.44H37.49Z"/>
  <path d="M38.24,17.57h6.43c1.07,0,1.74.55,1.76,1.43s-.67,1.5-1.77,1.5H31.79c-1.08,0-1.74-.56-1.76-1.44s.66-1.49,1.77-1.49Z"/>
  <path d="M24.9,46.88c1.85,0,3.7,0,5.56,0,1.1,0,1.78.59,1.76,1.49s-.69,1.43-1.76,1.43q-5.57,0-11.11,0c-1.1,0-1.79-.59-1.77-1.5s.69-1.42,1.77-1.42C21.2,46.87,23.05,46.88,24.9,46.88Z"/>
  <path d="M24.91,55.67H19.35c-1.1,0-1.79-.59-1.77-1.5s.69-1.43,1.76-1.43q5.57,0,11.11,0c1.11,0,1.79.59,1.77,1.49s-.68,1.43-1.76,1.43c-1.85,0-3.7,0-5.55,0Z"/>
  <path d="M26.36,19.05a1.46,1.46,0,1,1-2.92,0,1.46,1.46,0,1,1,2.92,0Z"/>
  <path d="M61.84,54.49a1.46,1.46,0,1,1-.05-2.92A1.46,1.46,0,0,1,63.28,53,1.49,1.49,0,0,1,61.84,54.49Z"/>
  <polygon class="cls-1" points="56.68 40.76 61.92 49.24 66.64 40.45 56.68 40.76"/>
</svg>
