<svg id="Layer_1" data-name="Layer 1" xmlns="http://www.w3.org/2000/svg" xmlns:xlink="http://www.w3.org/1999/xlink" viewBox="0 0 56.69 56.82"><defs><style>.cls-1{fill:none;}.cls-2{clip-path:url(#clip-path);}.cls-3{fill:#d9e6dc;}.cls-4{fill:#00a98a;}.cls-5{fill:#003726;}.cls-6{fill:#a5d9cd;}</style><clipPath id="clip-path"><rect class="cls-1" x="-270.57" y="-79.37" width="612" height="792"/></clipPath></defs><title>environment</title><g class="cls-2"><polygon class="cls-3" points="-279.07 -87.87 -279.07 721.13 341.43 721.13 341.43 -87.87 -279.07 -87.87 -279.07 -87.87"/></g><polygon class="cls-4" points="56.69 56.82 0 56.82 0 0 56.69 0 56.69 56.82 56.69 56.82"/><path class="cls-5" d="M20.49,47.38a37.49,37.49,0,0,0,7.86,9.38,37.66,37.66,0,0,0,7.85-9.38,36.71,36.71,0,0,1-7.85-3,36.79,36.79,0,0,1-7.86,3Z"/><path class="cls-5" d="M36.2,9.44A37.66,37.66,0,0,0,28.35.06a37.49,37.49,0,0,0-7.86,9.38,36.79,36.79,0,0,1,7.86,3,36.71,36.71,0,0,1,7.85-3Z"/><path class="cls-5" d="M20.49,9.44A37.7,37.7,0,0,0,8.3,8.37,37.35,37.35,0,0,0,9.38,20.55a36.73,36.73,0,0,1,7.67-3.43,37.13,37.13,0,0,1,3.44-7.68Z"/><path class="cls-5" d="M36.2,47.38a37.42,37.42,0,0,0,12.19,1.07,37.62,37.62,0,0,0-1.07-12.18,36.58,36.58,0,0,1-7.68,3.43,37.13,37.13,0,0,1-3.44,7.68Z"/><path class="cls-4" d="M33.59,41.08a37.07,37.07,0,0,1-5.24,3.3,36.71,36.71,0,0,0,7.85,3,37.13,37.13,0,0,0,3.44-7.68,36.67,36.67,0,0,1-6,1.38Z"/><path class="cls-4" d="M23.1,15.74a36.61,36.61,0,0,1,5.25-3.3,36.79,36.79,0,0,0-7.86-3,37.13,37.13,0,0,0-3.44,7.68,37.71,37.71,0,0,1,6.05-1.38Z"/><path class="cls-5" d="M9.38,20.55A37.56,37.56,0,0,0,0,28.41a37.56,37.56,0,0,0,9.38,7.86,36.79,36.79,0,0,1,3-7.86,36.79,36.79,0,0,1-3-7.86Z"/><path class="cls-5" d="M56.69,28.41a37.69,37.69,0,0,0-9.37-7.86,37.33,37.33,0,0,1-3,7.86,37.33,37.33,0,0,1,3,7.86,37.69,37.69,0,0,0,9.37-7.86Z"/><path class="cls-4" d="M41,33.66a36.77,36.77,0,0,1-1.37,6,36.58,36.58,0,0,0,7.68-3.43,37.33,37.33,0,0,0-3-7.86A37.24,37.24,0,0,1,41,33.66Z"/><path class="cls-4" d="M15.68,23.16a36.77,36.77,0,0,1,1.37-6,36.73,36.73,0,0,0-7.67,3.43,36.79,36.79,0,0,0,3,7.86,37.17,37.17,0,0,1,3.3-5.25Z"/><path class="cls-6" d="M23.1,15.74a37.71,37.71,0,0,0-6.05,1.38,36.77,36.77,0,0,0-1.37,6,37.72,37.72,0,0,1,3.45-4,40.19,40.19,0,0,1,4-3.45Z"/><path class="cls-6" d="M33.59,41.08a36.67,36.67,0,0,0,6-1.38,36.77,36.77,0,0,0,1.37-6,37.72,37.72,0,0,1-3.45,4,36.73,36.73,0,0,1-4,3.45Z"/><path class="cls-5" d="M9.38,36.27A37.35,37.35,0,0,0,8.3,48.45a37.42,37.42,0,0,0,12.19-1.07,37.13,37.13,0,0,1-3.44-7.68,36.73,36.73,0,0,1-7.67-3.43Z"/><path class="cls-5" d="M47.32,20.55A37.62,37.62,0,0,0,48.39,8.37,37.7,37.7,0,0,0,36.2,9.44a37.13,37.13,0,0,1,3.44,7.68,36.58,36.58,0,0,1,7.68,3.43Z"/><path class="cls-4" d="M23.1,41.08a36.67,36.67,0,0,1-6.05-1.38,37.13,37.13,0,0,0,3.44,7.68,36.79,36.79,0,0,0,7.86-3,36.61,36.61,0,0,1-5.25-3.3Z"/><path class="cls-4" d="M33.59,15.74a37.71,37.71,0,0,1,6,1.38A37.13,37.13,0,0,0,36.2,9.44a36.71,36.71,0,0,0-7.85,3,37.07,37.07,0,0,1,5.24,3.3Z"/><path class="cls-6" d="M33.59,15.74a37.07,37.07,0,0,0-5.24-3.3,36.61,36.61,0,0,0-5.25,3.3,38.39,38.39,0,0,1,10.49,0Z"/><path class="cls-6" d="M23.1,41.08a36.61,36.61,0,0,0,5.25,3.3,37.07,37.07,0,0,0,5.24-3.3,37.7,37.7,0,0,1-5.24.36,37.84,37.84,0,0,1-5.25-.36Z"/><path class="cls-4" d="M41,23.16a37.24,37.24,0,0,1,3.31,5.25,37.33,37.33,0,0,0,3-7.86,36.58,36.58,0,0,0-7.68-3.43,36.77,36.77,0,0,1,1.37,6Z"/><path class="cls-4" d="M15.68,33.66a37.17,37.17,0,0,1-3.3-5.25,36.79,36.79,0,0,0-3,7.86,36.73,36.73,0,0,0,7.67,3.43,36.77,36.77,0,0,1-1.37-6Z"/><path class="cls-6" d="M41,23.16a36.77,36.77,0,0,0-1.37-6,37.71,37.71,0,0,0-6-1.38,39.08,39.08,0,0,1,4,3.45,37.72,37.72,0,0,1,3.45,4Z"/><path class="cls-6" d="M15.68,33.66a36.77,36.77,0,0,0,1.37,6,36.67,36.67,0,0,0,6.05,1.38,37.62,37.62,0,0,1-7.42-7.42Z"/><path class="cls-6" d="M15.68,23.16a37.17,37.17,0,0,0-3.3,5.25,37.17,37.17,0,0,0,3.3,5.25,37.43,37.43,0,0,1,0-10.5Z"/><path class="cls-6" d="M41.38,28.41A36.45,36.45,0,0,1,41,33.66a37.24,37.24,0,0,0,3.31-5.25A37.24,37.24,0,0,0,41,23.16a36.45,36.45,0,0,1,.37,5.25Z"/><path class="cls-3" d="M41,23.16a37.72,37.72,0,0,0-3.45-4,39.08,39.08,0,0,0-4-3.45,38.39,38.39,0,0,0-10.49,0,40.19,40.19,0,0,0-4,3.45,37.72,37.72,0,0,0-3.45,4,37.43,37.43,0,0,0,0,10.5,37.62,37.62,0,0,0,7.42,7.42,37.84,37.84,0,0,0,5.25.36,37.7,37.7,0,0,0,5.24-.36,36.73,36.73,0,0,0,4-3.45,37.72,37.72,0,0,0,3.45-4,37.43,37.43,0,0,0,0-10.5Z"/></svg>