<svg id="Layer_1" data-name="Layer 1" xmlns="http://www.w3.org/2000/svg" width="100" height="100" viewBox="0 0 100 100"><title>Event management</title><path d="M2.79,47.56H6.14V85.92h52c.63,0,1.35.16,1.45-.82,0-.11.2-.24.33-.3,2.35-1.09,1.85-3.22,1.78-5.12,0-.45-.69-1-1.19-1.29a1.74,1.74,0,0,1-.72-2.52c.45-1.07.81-2.17,1.24-3.35-1.76-.93-3.54-1.88-5.32-2.81-2.54-1.34-5.09-2.64-7.61-4a1.54,1.54,0,0,0-1.7,0c-4,2.15-8.1,4.26-12.16,6.38-.29.16-.6.3-1.11.54.42-2.48.81-4.76,1.19-7,.44-2.57.85-5.13,1.33-7.69a1.55,1.55,0,0,0-.51-1.61c-3.26-3.12-6.46-6.29-9.7-9.42a6.3,6.3,0,0,0-1.05-.72l.21-.39,6.71-1c2.73-.4,5.46-.75,8.18-1.22a1.92,1.92,0,0,0,1.1-1c2-3.95,3.93-7.93,5.89-11.89.21-.44.45-.87.77-1.49.6,1.16,1.11,2.15,1.6,3.14,1.68,3.41,3.36,6.82,5,10.24a1.7,1.7,0,0,0,1.48,1.07c4.84.66,9.68,1.39,14.78,2.14-.78.78-1.43,1.45-2.1,2.11q-4.34,4.23-8.69,8.44a1.49,1.49,0,0,0-.48,1.52c.84,4.66,1.61,9.33,2.45,14.22.61-1.3,1.57-1,2.43-.85a1.89,1.89,0,0,0,2.28-.86.92.92,0,0,1,.3-.35,3.44,3.44,0,0,0,1.56-4.26,1.09,1.09,0,0,1,.49-.88c1.69-.76,3.41-1.47,5.14-2.13.26-.1.7.11,1,.29a2.12,2.12,0,0,1,.59.7A2.9,2.9,0,0,0,77.81,65c1.89.07,3.28-.27,4.27-2a1.31,1.31,0,0,1,1.18-.28c1.71.58,3.38,1.26,5.13,1.94V21.05H73.73v6.49H70.45V21.05H56.89v6.47H53.61V21.07H39.94v6.46H36.67V21.07H23.07v6.48H19.85V21H4.52V17.78H19.8c0-1.53,0-3,0-4.36,0-.25-.57-.53-.92-.68A6.58,6.58,0,0,1,19.77.34L21.2,0h.24a5,5,0,0,0,.76.2,6.52,6.52,0,0,1,5.11,9.33,6.85,6.85,0,0,1-4.21,3.54v4.55H36.63c0-1.25,0-2.42,0-3.58,0-.74-.23-1-.92-1.34A6.53,6.53,0,0,1,33.75,2a8.48,8.48,0,0,1,4.48-2h.23a17,17,0,0,1,3.13,1.06A6.1,6.1,0,0,1,44.84,7a6.43,6.43,0,0,1-4,5.81c-.37.17-.89.52-.91.81-.1,1.34,0,2.69,0,4.08H53.57c0-1.22,0-2.38,0-3.54.06-.79-.24-1.12-1-1.42A6.4,6.4,0,0,1,48.7,6.06,6.51,6.51,0,0,1,53.58.34L55,0h.24c.55.12,1.12.22,1.67.37a6.55,6.55,0,0,1,1,12.28c-.4.19-1,.54-1,.86-.11,1.37,0,2.75,0,4.21h13.6c0-1.28,0-2.44,0-3.59a1.27,1.27,0,0,0-.94-1.45,6.46,6.46,0,0,1-4-6.5,6.62,6.62,0,0,1,5-5.87L72,0h.24a3.55,3.55,0,0,0,.63.2,6.54,6.54,0,0,1,5.38,8.71,6.83,6.83,0,0,1-4.49,4.18v4.66h18V71.34c.59-.07,1-.09,1.43-.18a1.56,1.56,0,0,1,2.07,1.09c.59,1.58,1.27,3.13,1.91,4.69v.47c-1.73,1-2.87,2.39-2.37,4.59,0,.26-.07.55,0,.81a1.16,1.16,0,0,0,.31.69c.68.56,1.39,1.07,2.09,1.6v.47c-.69,1.71-1.4,3.42-2.09,5.14a1.13,1.13,0,0,1-1.53.8c-1.37-.34-2.59-.19-3.4,1.17a1.15,1.15,0,0,1-.41.41c-1.31.73-1.4,1.89-1.15,3.18a1.64,1.64,0,0,0,0,.23c.28.8-.1,1.23-.81,1.51-1.47.59-2.94,1.19-4.39,1.82a1.13,1.13,0,0,1-1.65-.53c-.76-1.36-1.91-1.64-3.45-1.68a3.55,3.55,0,0,0-3.63,1.79,1,1,0,0,1-1.47.44c-1.53-.65-3.06-1.29-4.6-1.9a1,1,0,0,1-.73-1.35,3,3,0,0,0-1.28-3.69,1,1,0,0,1-.32-.33,2.47,2.47,0,0,0-3.1-1.09,1.34,1.34,0,0,1-1.85-1c-.36-1.12-1.1-1.32-2.21-1.32q-27.37.06-54.76,0c-.54,0-1.08-.07-1.61-.11ZM91.55,74.48a1.94,1.94,0,0,1-2.62-.92,9,9,0,0,0-2.42-2.47A2.42,2.42,0,0,1,85.25,68c.23-.77-.09-1.2-.85-1.47S83.34,66.41,83,67a2.62,2.62,0,0,1-3.35,1.35,6.19,6.19,0,0,0-2.87,0,2.5,2.5,0,0,1-3.17-1.29,1,1,0,0,0-1.55-.44c-.58.27-.92.58-.73,1.21.47,1.62-.15,2.65-1.55,3.49a5.57,5.57,0,0,0-1.93,2,2.43,2.43,0,0,1-3.07,1.28c-.75-.18-1.1.1-1.39.8s-.2,1.09.4,1.45a2.43,2.43,0,0,1,1.31,3.06,5.72,5.72,0,0,0,0,3A2.14,2.14,0,0,1,64,85.66a1.21,1.21,0,0,0-.26,2.09c.35.36,1.26.33,1.89.23a1.68,1.68,0,0,1,1.82.8,13.29,13.29,0,0,0,2.72,2.83c1.06.77,1.61,1.5,1.24,2.83-.14.53-.32,1.2.54,1.55s1.28.34,1.74-.42a2.37,2.37,0,0,1,3-1.24,6.39,6.39,0,0,0,3.22,0A2.43,2.43,0,0,1,83,95.61c.44.72.94.69,1.66.41,1-.37.73-1.1.59-1.73a2.05,2.05,0,0,1,1-2.5,9.1,9.1,0,0,0,2.55-2.51,2.3,2.3,0,0,1,2.84-1.21,1.09,1.09,0,0,0,1.55-.73c.24-.69.26-1.16-.42-1.55a2.38,2.38,0,0,1-1.25-3.06,5.85,5.85,0,0,0,0-2.88A2.21,2.21,0,0,1,92.64,77c1.07-.55.8-1.37.29-2C92.64,74.61,91.91,74.59,91.55,74.48ZM32,48c2.19,2.36,4.47,4.78,6.71,7.25a1.81,1.81,0,0,1,.44,1.28c-.14,1.35-.42,2.68-.65,4-.33,2-.67,4-1,6.17,2.63-1.38,5.15-2.51,7.47-4a3.93,3.93,0,0,1,4.72.06C52,64.19,54.52,65.35,57,66.63c.06-.16.09-.2.08-.23-.41-2.41-.8-4.82-1.23-7.22-.62-3.44-.59-3.39,1.91-5.83,1.77-1.71,3.42-3.55,5.11-5.33-3.08-.45-6.25-1-9.45-1.36a1.93,1.93,0,0,1-1.73-1.24c-1.23-2.64-2.55-5.23-3.84-7.83a9.94,9.94,0,0,0-.56-.93c-1.53,3.1-3,6-4.4,8.94a1.69,1.69,0,0,1-1.5,1C38.12,47.07,34.89,47.56,32,48ZM21.41,10A3.32,3.32,0,0,0,24.7,6.66a3.36,3.36,0,0,0-3.23-3.31,3.4,3.4,0,0,0-3.36,3.31A3.34,3.34,0,0,0,21.41,10Zm16.88,0a3.4,3.4,0,0,0,3.35-3.32,3.33,3.33,0,0,0-6.65,0A3.37,3.37,0,0,0,38.29,10ZM72.1,10a3.4,3.4,0,0,0,3.34-3.33A3.47,3.47,0,0,0,72,3.36a3.39,3.39,0,0,0-3.24,3.3A3.34,3.34,0,0,0,72.1,10ZM58.51,6.67a3.41,3.41,0,0,0-3.27-3.31,3.36,3.36,0,0,0-3.33,3.36,3.3,3.3,0,1,0,6.6,0Z"/><path d="M78.33,73.42a7.88,7.88,0,0,1,7.93,7.88,7.94,7.94,0,1,1-15.88,0A7.81,7.81,0,0,1,78.33,73.42Zm-.08,12.5A4.51,4.51,0,0,0,83,81.43a4.68,4.68,0,1,0-9.36-.11A4.48,4.48,0,0,0,78.25,85.92Z"/></svg>