<svg id="Layer_1" data-name="Layer 1" xmlns="http://www.w3.org/2000/svg" xmlns:xlink="http://www.w3.org/1999/xlink" viewBox="0 0 56.69 56.69"><defs><style>.cls-1{fill:none;}.cls-2{clip-path:url(#clip-path);}.cls-3{fill:#e4d0dc;}.cls-4{fill:#8d2a90;}.cls-5{fill:#381460;}</style><clipPath id="clip-path"><rect class="cls-1" x="-270.57" y="-79.43" width="612" height="792"/></clipPath></defs><title>governance</title><g class="cls-2"><polygon class="cls-3" points="-279.07 -87.94 -279.07 721.07 341.43 721.07 341.43 -87.94 -279.07 -87.94 -279.07 -87.94"/></g><polygon class="cls-4" points="28.35 0 56.69 28.35 56.69 0 28.35 0 28.35 0"/><polygon class="cls-4" points="0 0 0 28.35 28.35 0 0 0 0 0"/><polygon class="cls-4" points="0 28.35 0 56.69 28.35 56.69 0 28.35 0 28.35"/><polygon class="cls-4" points="28.35 56.69 56.69 56.69 56.69 28.35 28.35 56.69 28.35 56.69"/><polygon class="cls-5" points="0 28.35 28.35 56.69 56.69 28.35 28.35 0 0 28.35 0 28.35"/><path class="cls-4" d="M12.94,28.35A15.41,15.41,0,1,0,28.35,12.94,15.41,15.41,0,0,0,12.94,28.35Z"/><path class="cls-3" d="M20.06,28.35a8.29,8.29,0,1,0,8.29-8.28,8.29,8.29,0,0,0-8.29,8.28Z"/></svg>