<svg id="Layer_1" data-name="Layer 1" xmlns="http://www.w3.org/2000/svg" width="800" height="500" viewBox="0 0 800 500"><defs><style>.cls-1{fill:#b27419;}</style></defs><title>graduates</title><path class="cls-1" d="M532,350.24c-2.92,6.64-5.56,12.68-8.48,19.33l30,12.59V376.9q0-90,.09-180.1c0-3.42-1-5-4.06-6.46-25.72-12.31-51.36-24.79-76.53-37-3.89,2.3-7.54,4.26-10.94,6.59a5.18,5.18,0,0,0-1.85,3.71c-.16,8.36-.09,16.73-.09,25.1q0,77.07,0,154.13a29.75,29.75,0,0,1-.19,5.18,5.7,5.7,0,0,1-11.28-.34,41.66,41.66,0,0,1-.07-4.33q0-89.19,0-178.37c0-2.78-.25-4.57-3.4-5.88A22.92,22.92,0,0,1,432,131c3.49-11.48,14.51-18.16,26.67-16.14a22.82,22.82,0,0,1,18.78,24.3c-.17,2.71.81,3.76,3,4.81q37.76,18.22,75.41,36.63a7.5,7.5,0,0,0,7.29-.09q48-23.42,96-46.66c7.63-3.71,11.17-1.54,11.17,6.87q0,98.28-.08,196.55c0,3.62,1.14,5.19,4.45,6.54,33.07,13.49,66,27.25,99.11,40.75,4.39,1.8,6.14,4.36,6.07,9.11-.23,17.17,0,34.35-.23,51.52,0,3,1.42,3.82,3.66,4.88,10.24,4.85,15.26,15.48,12.75,26.61a23.34,23.34,0,0,1-45.47-.48,23,23,0,0,1,14.13-26.64c2.88-1.12,3.55-2.49,3.52-5.32-.13-14.11-.06-28.23-.06-43.06-7.92,3.23-15.37,6.17-22.69,9.4-.84.36-1.34,2.36-1.35,3.6-.1,10.83-.46,21.67.07,32.47.4,8-2.75,13.92-8.07,19.2-9,8.93-20.17,13.83-32.32,16.41-28.71,6.1-57.26,6.18-85.28-3.7a51.11,51.11,0,0,1-23.26-15.94A21.62,21.62,0,0,1,590,448c.28-11.11,0-22.23.15-33.34,0-2.73-.81-4.11-3.39-5.1-7-2.67-13.93-5.52-20.79-8.5-14.37-6.25-28.67-12.64-43-19-1.18-.52-2.39-1-4.21-1.69-2.76,6.13-5.5,12.19-8.54,18.92l-31.54-43.39Zm126.74-203c-2,.92-3.26,1.49-4.51,2.09-28.25,13.68-56.47,27.42-84.79,41-3.12,1.49-4,3.18-4,6.5q.15,90,.07,180v5.05c1.74-.62,3-1,4.11-1.46,28.3-11.82,56.55-23.72,84.9-35.39,3.41-1.4,4.3-3.23,4.29-6.71q-.15-92.8-.07-185.62ZM760.25,391.73c-30.94-12.78-60.86-25.18-90.85-37.42a7.71,7.71,0,0,0-5.25.33c-18.41,7.46-36.77,15.06-55.13,22.63L574.37,391.6c1.38.69,2.11,1.11,2.88,1.43q43.69,18.06,87.45,36a8.22,8.22,0,0,0,5.6-.28c19.08-7.74,38.09-15.65,57.11-23.51ZM732.31,416c-2.3.9-3.77,1.45-5.22,2-18.23,7.52-36.5,15-54.67,22.64a12.76,12.76,0,0,1-10.74-.07c-15.24-6.47-30.57-12.72-45.88-19-4.47-1.84-9-3.6-13.9-5.58,0,9.43.7,18.29-.19,27-.94,9.23,3.44,14.8,10.4,19.16a58.63,58.63,0,0,0,11.92,6c24,8.2,48.42,8,73,3.76,10.46-1.82,20.48-5.19,28.61-12.37,2.7-2.38,6.15-5.7,6.36-8.79C732.77,439.42,732.31,428,732.31,416ZM442.71,138a11.54,11.54,0,0,0,11.91,11.55,11.77,11.77,0,0,0,11.47-11.67,11.55,11.55,0,0,0-11.79-11.7A11.38,11.38,0,0,0,442.71,138ZM773.56,459.53a11.77,11.77,0,0,0-12.06,11.53,12,12,0,0,0,11.84,11.84A11.58,11.58,0,0,0,785,471.51,11.42,11.42,0,0,0,773.56,459.53Z"/><path class="cls-1" d="M482.82,300.8c2,.73,3.15,1,4.18,1.51q22.35,10.83,44.67,21.72c4,2,5.37,5.11,3.8,8.3-1.64,3.34-4.84,4.12-9.28,2-10.4-5-20.74-10-31.1-15.08-4.66-2.26-9.34-4.51-14-6.81-3.06-1.53-4.24-4.29-2.89-7.2C479.1,303.32,481.42,302.08,482.82,300.8Z"/><path class="cls-1" d="M482.72,241.29c2.19.79,3.44,1.13,4.59,1.69,14.65,7.06,29.34,14,43.85,21.38a9.61,9.61,0,0,1,4.7,5.89c.79,4.44-4,7-8.8,4.84-7.34-3.32-14.54-6.94-21.8-10.44l-23.7-11.47c-3.17-1.53-4.73-4.22-3.37-7.41C479,243.87,481.32,242.61,482.72,241.29Z"/><path class="cls-1" d="M536.09,239c-.06,5.48-3.61,8.2-7.48,6.86a98.22,98.22,0,0,1-10.23-4.57q-17.89-8.62-35.75-17.33c-4.42-2.15-6-5.48-4.25-8.89,1.6-3.15,5-3.74,9.41-1.61,14.51,7,29.06,14,43.49,21.17C533.45,235.67,535,238,536.09,239Z"/><path class="cls-1" d="M536.09,209.24c-.06,6.13-4.31,8.46-9.18,6.24-8-3.64-15.83-7.56-23.73-11.37q-10.29-5-20.58-10c-4.29-2.08-5.87-5.18-4.39-8.53s5-4.23,9.26-2.14c14.63,7.09,29.28,14.12,43.81,21.4C533.45,206,535,208.24,536.09,209.24Z"/><path class="cls-1" d="M484.25,271.62a18.94,18.94,0,0,1,2.88,1q22,10.62,43.89,21.31c.9.44,2.28.74,2.57,1.45.9,2.21,2.17,4.72,1.8,6.86-.47,2.79-3.21,4.15-6.09,3.27A60.16,60.16,0,0,1,521,302q-19.27-9.24-38.51-18.54c-2.59-1.25-4.73-2.76-4.71-6.05S480.09,271.66,484.25,271.62Z"/><path class="cls-1" d="M588.34,306.24c-1.32-1.44-3.9-3-4.09-4.81-.21-2.06,1.12-5.34,2.81-6.35,5.66-3.39,11.78-6,17.73-8.9,9.32-4.54,18.56-9.23,28-13.44a9.3,9.3,0,0,1,7.13.35c1.29.66,2.1,3.77,1.8,5.57-.27,1.6-2.08,3.46-3.68,4.26-14.81,7.37-29.72,14.56-44.62,21.74A40.41,40.41,0,0,1,588.34,306.24Z"/><path class="cls-1" d="M642,308.64c-.65.75-1.66,2.88-3.33,3.71-15.33,7.63-30.76,15.07-46.2,22.48-3.31,1.59-6.26.93-8.07-2.5-1.64-3.09-.39-6.23,3.4-8.09q22.68-11.14,45.45-22.1C637.89,299.94,642.18,302.61,642,308.64Z"/><path class="cls-1" d="M588.63,217.07c-1.49-1.53-3.72-2.88-4.47-4.81-1.19-3,.42-5.56,3.41-7q12.79-6.23,25.61-12.46,9.5-4.64,19-9.22c4.38-2.11,7.81-1.42,9.39,1.84s.06,6.57-4.13,8.61q-21.35,10.38-42.71,20.69C593.1,215.5,591.31,216,588.63,217.07Z"/><path class="cls-1" d="M588.71,246.81c-1.42-1.4-3.7-2.72-4.51-4.66-1.24-3,.19-5.57,3.25-7.06,8.67-4.21,17.32-8.47,26-12.69q9.51-4.62,19.06-9.18c4.06-1.94,7.44-1.23,9,1.84,1.68,3.34.25,6.68-3.88,8.69q-21.74,10.58-43.53,21.07C592.67,245.5,591.13,245.92,588.71,246.81Z"/><path class="cls-1" d="M637.08,241.23c1.48,1.38,3.79,2.63,4.64,4.53a5.14,5.14,0,0,1-2.65,7c-5,2.54-10.06,5-15.11,7.43q-14.76,7.17-29.53,14.29c-.52.25-1,.51-1.57.73-4,1.56-7.05.68-8.51-2.43s-.22-6.2,3.54-8.08c8.63-4.29,17.32-8.48,26-12.7q8.94-4.33,17.89-8.61C633.19,242.66,634.69,242.17,637.08,241.23Z"/></svg>