<svg id="Layer_1" data-name="Layer 1" xmlns="http://www.w3.org/2000/svg" width="100" height="100" viewBox="0 0 100 100"><title>Agreement</title><path d="M73,96.52c0-2.71,0-5.39,0-8,0-.29-.6-.66-1-.84a6.93,6.93,0,0,1,.57-13.08,7.17,7.17,0,0,1,8.89,4.28,6.92,6.92,0,0,1-4.17,8.87l-.78.32v12H7.85V98.26q0-41.46,0-82.93a1.85,1.85,0,0,0-1.32-2.09,6.75,6.75,0,0,1-4-7.12A7.05,7.05,0,0,1,8.3.13a7.16,7.16,0,0,1,7.49,3.44c.24.43.44.89.69,1.39h1.46q18.93,0,37.88,0a2.64,2.64,0,0,1,2,.84c4.19,4.16,8.41,8.28,12.63,12.41l.91.86,5.22-4.13c.87,5.3,1.71,10.37,2.6,15.74L64,25l4.74-3.81c-.61-.54-1.15-1-1.65-1.46-3.6-3.51-7.18-7.06-10.81-10.54a2.64,2.64,0,0,0-1.68-.74c-12.34,0-24.67,0-37,0a1.14,1.14,0,0,0-1.31.92,7,7,0,0,1-4.85,4.43V96.52ZM5.89,7A3.68,3.68,0,0,0,9.6,10.66,3.77,3.77,0,0,0,13.32,7,3.58,3.58,0,0,0,9.59,3.39,3.57,3.57,0,0,0,5.89,7ZM74.83,84.77a3.57,3.57,0,0,0,3.67-3.65,3.76,3.76,0,0,0-3.8-3.59,3.62,3.62,0,0,0-3.63,3.71A3.51,3.51,0,0,0,74.83,84.77Z"/><path d="M56.48,61.58,88.39,30.3,97.54,40,82,55.23C76,61.15,69.91,67,63.94,73a11.62,11.62,0,0,1-3.48,2.37c-4.85,2.25-9.72,4.48-14.53,6.84a8.16,8.16,0,0,1-3.86.83c-7.18,0-14.36,0-21.54,0H19V79.69H44.67l.21,1.81c2.83-5.83,5.53-11.36,8.31-17.08H19V61c.38,0,.77-.06,1.16-.06q17.33,0,34.66,0A6.11,6.11,0,0,1,56.48,61.58ZM88.27,35.32,56.19,66.76l4.31,4.67L92.62,40ZM57.06,73.13l-2.78-2.9-2.65,5.45Z"/><path d="M55.93,23.64v3.29H19V23.64Z"/><path d="M55.92,33v3.28H19V33Z"/><path d="M19,54.93V51.69H55.87v3.24Z"/><path d="M19,45.61V42.37H55.87v3.24Z"/><path d="M19,70.35H44.67v3.29H19Z"/></svg>