<svg id="ICONS" xmlns="http://www.w3.org/2000/svg" width="100" height="116.67" viewBox="0 0 100 116.67"><defs><style>.cls-1,.cls-2{fill:none;stroke:#000;stroke-miterlimit:10;stroke-width:3px;}.cls-1{stroke-linecap:square;}</style></defs><title>Investor Contacts</title><circle id="_Path_" data-name="&lt;Path&gt;" class="cls-1" cx="39.35" cy="31" r="5.58"/><path id="_Path_2" data-name="&lt;Path&gt;" class="cls-1" d="M49.82,49.33V46a5.65,5.65,0,0,0-5.65-5.65H34.54A5.65,5.65,0,0,0,28.89,46v3.29"/><circle id="_Path_3" data-name="&lt;Path&gt;" class="cls-1" cx="39.35" cy="63.91" r="5.58"/><path id="_Path_4" data-name="&lt;Path&gt;" class="cls-1" d="M49.82,82.24V79a5.65,5.65,0,0,0-5.65-5.65H34.54A5.65,5.65,0,0,0,28.89,79v3.29"/><line id="_Path_5" data-name="&lt;Path&gt;" class="cls-2" x1="57.13" y1="39.94" x2="72.63" y2="39.94"/><line id="_Path_6" data-name="&lt;Path&gt;" class="cls-2" x1="57.54" y1="74.2" x2="73.04" y2="74.2"/><g id="_Group_" data-name="&lt;Group&gt;"><polyline class="cls-2" points="83.26 70.19 83.26 16.28 28.2 16.28"/><polygon points="89.24 68.43 83.26 78.8 77.27 68.43 89.24 68.43"/></g><polyline id="_Path_7" data-name="&lt;Path&gt;" class="cls-2" points="16.42 25.71 16.42 102.01 67 102.01 83.31 85.55"/><circle id="_Ellipse_" data-name="&lt;Ellipse&gt;" class="cls-2" cx="16.27" cy="20.5" r="5"/></svg>