<svg id="Layer_1" data-name="Layer 1" xmlns="http://www.w3.org/2000/svg" width="800" height="500" viewBox="0 0 800 500"><defs><style>.cls-1{fill:#d14d3b;}</style></defs><title>location</title><path class="cls-1" d="M478.68,498.47c-.05-12.93-.14-25.86-.15-38.79q0-55.08,0-110.15v-5.82h-28c11.64-20.55,22.85-40.36,34.55-61l35.54,60.36H493.18v134.8c8.84-3.05,17.61-6,26.37-9.09,17.8-6.18,35.56-12.48,53.4-18.51,3.15-1.06,3.93-2.62,3.92-5.75-.12-27.65-.07-55.3-.07-82.95v-5.11h14.42v5.46q0,41.25,0,82.5c0,2.29-.14,4.14,2.9,5,30.81,8.81,61.57,17.78,92.35,26.7.83.24,1.71.3,3.18.55v-5c0-31.67-.06-63.33.09-95,0-3.49-1-5.15-4.28-6.51-11.46-4.65-17.83-15-17.65-27.83a28.25,28.25,0,0,1,18.14-25.74c2.85-1.09,3.78-2.41,3.77-5.43q-.16-45.48,0-91c0-3.29-1.09-4.66-4.16-5.56-6.52-1.93-12.92-4.28-19.75-6.58l4.54-13.71c7.76,2.58,15.27,5.17,22.85,7.52,1.85.57,4.18,1,5.92.36q49.07-16.74,98-33.79V451.19C765,465.07,733,479,700.81,492.72a11.52,11.52,0,0,1-7.13.43c-35.35-10.07-70.63-20.37-106-30.45a12.86,12.86,0,0,0-7.22.24Q547,474.34,513.71,486.1c-11.42,4-22.76,8.24-34.14,12.37Zm303.72-309a7.18,7.18,0,0,0-1.51,0c-24.83,8.52-49.67,17-74.43,25.72-1.2.43-2.43,2.83-2.43,4.31-.15,30.62-.07,61.23-.17,91.84,0,2.86.95,4.09,3.57,5.11a28.27,28.27,0,0,1,18.34,26.05c.12,12.69-6.4,23.14-17.85,27.72-3.2,1.27-4.09,2.84-4.08,6.15.13,31.36.08,62.71.08,94.07v4.93c2.35-.91,4.13-1.54,5.85-2.28,22.46-9.73,44.86-19.59,67.41-29.11,4.05-1.71,5.34-3.75,5.33-8.15q-.22-120.36-.11-240.74ZM711.49,343.68a14.71,14.71,0,1,0-29.42-.36,14.71,14.71,0,1,0,29.42.36Z"/><path class="cls-1" d="M592,118.47c9,3.15,18.67,5.17,27,9.66C650,145,666.22,182.63,657,215.28a49.94,49.94,0,0,1-5.94,12.87q-27.44,43.5-55.21,86.78c-1.83,2.87-3.75,5.68-5.82,8.8-2-1.19-3.85-3-5.78-3.16s-4.08,1.37-6.39,2.25a4.45,4.45,0,0,1-1.07-.95c-18.71-29.26-37-58.8-56.18-87.75C490.76,189,521,127,574.36,119.2a6.06,6.06,0,0,0,1.55-.73Zm-8,188c.73-.95,1-1.28,1.25-1.64Q611.36,263.9,637.55,223c8.57-13.32,9.38-27.52,5.32-42.35-7-25.45-27.59-44.51-52.91-47.19-24.77-2.62-43.72,8.65-56.76,28.92-12.55,19.52-14.13,40.31-1.83,61,5.77,9.7,11.59,19.37,17.65,28.89C560.41,270.18,572,288,583.93,306.44Z"/><path class="cls-1" d="M583.79,222.92a29.68,29.68,0,1,1,30-29.4A29.66,29.66,0,0,1,583.79,222.92Zm.07-14.36a15.29,15.29,0,1,0-15.36-15.23A15.37,15.37,0,0,0,583.86,208.56Z"/></svg>