<svg id="Layer_1" data-name="Layer 1" xmlns="http://www.w3.org/2000/svg" width="100" height="100" viewBox="0 0 100 100"><title>Podcast</title><path d="M50.09,0c1.57.13,3.14.24,4.7.41,19.92,2.18,36,16.25,40.13,35.75,3.64,17.33-1.25,32.23-14.23,44.38l-.42.4c.65.8,1.29,1.61,1.93,2.41s1.25,1.56,2,2.5L68.7,88.24l5.67-14.61,3.7,4.56C89.69,68.52,96.2,50.87,90.71,33.27A42.67,42.67,0,1,0,22.1,78.37L26,73.64l5.68,14.6-15.5-2.39,3.79-4.75a46.37,46.37,0,0,1-9.59-11.46A45.34,45.34,0,0,1,4.11,50.17a3.76,3.76,0,0,0-.2-.73v-6.5c.25-1.71.45-3.42.77-5.11A45.88,45.88,0,0,1,45.18.42C46.73.25,48.3.14,49.86,0Z"/><path d="M30.53,67.67l-2.2,2.41C20.29,63.44,15,50.18,19,36.76A32.42,32.42,0,0,1,80.43,35c4.78,13.23.46,27.22-8.71,35.12l-2.23-2.41c7.14-6.82,10.36-15.12,9.29-24.89a27.94,27.94,0,0,0-10.5-19.11,29,29,0,0,0-37.75,44Z"/><path d="M43.25,57.57H56.73V100H43.25ZM53.38,96.68V61H46.66V96.68Z"/><path d="M65.18,58.32l-2.52-2a16.19,16.19,0,1,0-25.3,0l-2.5,2c-5.22-5.66-6.8-17.51,1.14-25.8a19.67,19.67,0,0,1,27.84-.15C71.91,40.48,70.63,52.24,65.18,58.32Z"/><path d="M50,53a6.81,6.81,0,0,1-6.85-6.72,6.82,6.82,0,0,1,13.63-.18A6.79,6.79,0,0,1,50,53Zm3.43-6.81A3.54,3.54,0,0,0,50,42.73a3.46,3.46,0,0,0,0,6.91A3.54,3.54,0,0,0,53.47,46.19Z"/></svg>