<svg id="Layer_1" data-name="Layer 1" xmlns="http://www.w3.org/2000/svg" width="800" height="500" viewBox="0 0 800 500"><defs><style>.cls-1{fill:#0e85c1;}</style></defs><title>professionals</title><path class="cls-1" d="M694.68,453.77v24.57c-1.93.1-3.54.25-5.16.25-20.24,0-40.48.07-60.73,0-3.07,0-4.69.61-6.06,3.8-4.56,10.57-13,16.19-24.51,16.13-11.37-.06-19.59-5.65-24.06-16.06-1.36-3.17-3-3.88-6.1-3.87-20.55.12-41.1.06-61.65.06h-5.56V456.17H457.62V477.1c-2-1.06-3.36-1.69-4.63-2.42-11.54-6.66-23.18-13.16-34.57-20.07-6.05-3.66-12.13-6.41-19.92-4.86V371c0-35,27.37-62.35,62.46-62.36,14,0,27.91.12,41.86,0a65.74,65.74,0,0,1,31.4,7.51,8,8,0,0,0,6.16.15c9.61-4.4,19.56-7.2,30.14-7.26q27.38-.15,54.75,0a64.57,64.57,0,0,1,27.54,6.39,6.22,6.22,0,0,0,6.75-.34,59.52,59.52,0,0,1,31.9-8.87c14.72.05,29.44,0,44.16,0a61.52,61.52,0,0,1,61.5,61.84q0,36.57,0,73.15v5c-13.94,2.41-24,11.93-35.9,17.95-7.58,3.85-14.8,8.41-22.89,13.06V453.77ZM648.62,327.9l-45,117.84c12.13,4.54,14.78,7.06,20.78,19.45H681c0-30.86,1.08-61.4-.37-91.82C679.63,352.89,667.34,338.08,648.62,327.9ZM592.11,446.17l-47-116.92c-17.66,8.19-30.72,29-30.81,48.9-.12,27.9,0,55.79,0,83.68,0,1.16.22,2.32.36,3.73,18.82,0,37.34,0,55.86-.08a3.46,3.46,0,0,0,2.63-1.8C576.41,454.85,582.64,449.22,592.11,446.17Zm192-3.33V437c0-22.38,0-44.76,0-67.14a57.4,57.4,0,0,0-.94-11c-3-15.31-11.75-26.44-25.64-34.27-14.64,38.3-29.1,76.14-43.9,114.89-6.23-15.42-12.13-30-18-44.66l-.54.2v44.84h43.44V416.52Zm-372.5,0,46.23-26.58v26.15h42.68v-44l-.67-.15c-5.73,14.16-11.45,28.33-17.65,43.65L438.25,327.07c-16.7,9.59-26,23.36-26.49,41.71C411.05,393.12,411.58,417.51,411.58,442.85Zm186-18.55c4.92-12.87,9.44-24.55,13.77-36.3.46-1.26.06-3-.31-4.38-3.4-12.85-7.05-25.65-10.21-38.56a18.47,18.47,0,0,1,.6-9.13c1.35-4.55,3.49-8.86,5.36-13.43H587.89c2.27,4.89,4.17,9.38,6.42,13.68,1.61,3.08,1.56,5.83.51,9.12-4,12.52-7.67,25.14-11.41,37.75-.42,1.41-1,3.18-.54,4.4C587.5,399.38,592.35,411.24,597.61,424.3Zm115.61-21c4-10.33,7.47-19.27,10.74-28.28.47-1.28,0-3-.32-4.45-2-7.85-3.78-15.82-6.44-23.46-3-8.52-3.7-16.55,1.38-24.46a13.63,13.63,0,0,0,1-3H706.45c1.54,3.38,2.59,6.45,4.24,9.15,2.2,3.58,2.06,6.91.79,10.79-3.33,10.18-6.3,20.48-9.33,30.75-.4,1.39-.8,3.13-.32,4.37C705.32,383.8,709,392.84,713.22,403.26Zm-230.73,2.37c3.82-9.42,7.41-17.79,10.55-26.33a12.84,12.84,0,0,0,.2-7.42c-3-10.75-6.44-21.37-9.45-32.12a11.55,11.55,0,0,1,.45-6.49c1.3-3.68,3.17-7.16,5-11.11H476a80.17,80.17,0,0,0,3.33,7.95c2.41,4.33,2.24,8.55.85,13.19-3,10-5.54,20.05-8.23,30.09-.31,1.14-.76,2.53-.4,3.53C475,386.2,478.58,395.43,482.49,405.63Zm116,53.21a13.21,13.21,0,0,0-13.46,13.28,13.61,13.61,0,0,0,13.5,13.39,13.84,13.84,0,0,0,13.33-13.19A13.51,13.51,0,0,0,598.51,458.84Zm-24-92.21c1.74-5.75,2.67-10.41,4.54-14.65,3.19-7.18,2.35-13.47-1.34-20.36C572,321,571.76,320.49,560,323.51c-.72.18-1.43.45-2.53.79Zm45.54-1c5.62-14.73,10.77-28.19,16.08-42.1-2.81-.46-5-.88-7.25-1.18-7.07-.95-7.07-.94-9.78,5.57-1.42,3.38-3,6.7-4.19,10.17a12,12,0,0,0-.67,6.14C615.76,351,617.76,357.56,620,365.67ZM515.93,322.46c-4.61,0-10.19-1.53-11.7.31-3.46,4.18-6.51,9.92-6.78,15.18-.27,5.49,2.92,11.16,4.59,16.75l1-.09Zm177.33,31.08c1-3,1.58-4.85,2.15-6.73,2-6.47,4.39-12.48.19-19.54-5.08-8.51-4.43-8.9-14.36-6.78-.24.06-.42.38-.93.86ZM745,320.25a72.66,72.66,0,0,0-7.54-.85c-1.19,0-3,.38-3.48,1.21-6.16,9.84-7.16,20-.88,30.74C737,341,740.87,330.92,745,320.25Zm-294.22,2.32,11.95,31.17a58.12,58.12,0,0,0,4.07-12.21c.43-1.86,1-4,.43-5.72A99.22,99.22,0,0,0,462.25,324a3.72,3.72,0,0,0-2.48-2C457,321.92,454.13,322.31,450.73,322.57Z"/><path class="cls-1" d="M597.34,289.8a49.24,49.24,0,1,1,.86-98.47c27.22.16,48.85,22.31,48.77,49.93C646.89,268.19,624.71,289.87,597.34,289.8Zm36.59-49.29c0-19.52-16.58-36-36.14-36.13s-36.53,17-36.23,36.54,17,36,36.41,35.84C617.65,276.55,634,260.09,633.93,240.51Z"/><path class="cls-1" d="M756.48,248.85a43.18,43.18,0,0,1-86.35-.42,43.18,43.18,0,1,1,86.35.42Zm-43.56-30.31a30,30,0,0,0-29.39,30.68c.4,16.32,14.39,29.87,30.33,29.37,16.55-.52,30.14-14.65,29.57-30.76C742.86,231.51,728.84,218.06,712.92,218.54Z"/><path class="cls-1" d="M482.41,207.9a43,43,0,0,1,43.09,42.89,43.42,43.42,0,0,1-43.24,43.43c-23.68,0-43.24-19.77-43.12-43.59A43,43,0,0,1,482.41,207.9Zm-.05,72.85a30.11,30.11,0,0,0,30.07-29.6c.25-16.16-13.75-30.22-30.1-30.21a30.28,30.28,0,0,0-30,29.78A29.9,29.9,0,0,0,482.36,280.75Z"/></svg>