<svg id="Layer_1" data-name="Layer 1" xmlns="http://www.w3.org/2000/svg" width="100" height="100" viewBox="0 0 100 100"><path d="M96.48,89.57V38H100V93.1H0V13.38H83.16V6.9l14.47,8.23L83.18,23.34V17H3.57V89.57Z"/><path d="M50.11,56.92H72.42V35.81c8.18,1.32,13.93,8.68,14.17,16.66A18.33,18.33,0,0,1,70.51,71.3,18.64,18.64,0,0,1,50.11,56.92Zm5.26,3.6A14.86,14.86,0,0,0,72.1,67.37,14.65,14.65,0,0,0,83,53.1c0-5.15-3.62-11.26-7-12.05V60.52Z"/><path d="M10.24,27.94H42.48V39.73H10.24Zm3.64,3.64v4.58h25V31.58Z"/><path d="M49.91,55c-1.29-10.95,8.35-20.9,20-19.73V55ZM66.34,38.9c-6.57.29-12.68,6.85-12.68,12.53H66.34Z"/><path d="M40.86,71.22v3.39h-29V71.22Z"/><path d="M40.87,50.34v3.29h-29V50.34Z"/><path d="M11.86,64.13V60.79h29v3.34Z"/></svg>