<svg xmlns="http://www.w3.org/2000/svg" width="31" height="31" viewBox="0 0 31 31">
    <path fill="#000000" fill-rule="nonzero" d="M24.8 18.475c-1.86 0-3.565.783-4.65 2.192l-7.905-3.914c.155-.47.155-.94.155-1.253 0-.313 0-.94-.155-1.253l7.905-3.914c1.085 1.253 2.79 2.192 4.65 2.192 3.41 0 6.2-2.818 6.2-6.262C31 2.818 28.21 0 24.8 0s-6.2 2.818-6.2 6.263c0 .47 0 .939.155 1.252L10.85 11.43C9.765 10.177 8.06 9.237 6.2 9.237 2.79 9.237 0 12.056 0 15.5s2.79 6.263 6.2 6.263c1.86 0 3.565-.783 4.65-2.192l7.905 3.914c-.155.47-.155.94-.155 1.252 0 3.445 2.79 6.263 6.2 6.263s6.2-2.818 6.2-6.263c0-3.444-2.79-6.262-6.2-6.262zm0-15.657c1.705 0 3.1 1.41 3.1 3.131 0 1.723-1.395 3.132-3.1 3.132s-3.1-1.41-3.1-3.132c0-1.722 1.395-3.13 3.1-3.13zM6.2 18.475c-1.705 0-3.1-1.41-3.1-3.132 0-1.722 1.395-3.13 3.1-3.13s3.1 1.408 3.1 3.13c0 1.723-1.395 3.132-3.1 3.132zm18.6 9.394c-1.705 0-3.1-1.41-3.1-3.132 0-1.722 1.395-3.13 3.1-3.13s3.1 1.408 3.1 3.13c0 1.723-1.395 3.132-3.1 3.132z"/>
</svg>
