<svg id="Layer_1" data-name="Layer 1" xmlns="http://www.w3.org/2000/svg" xmlns:xlink="http://www.w3.org/1999/xlink" viewBox="0 0 56.69 56.69"><defs><style>.cls-1{fill:none;}.cls-2{clip-path:url(#clip-path);}.cls-3{fill:#c4e4f7;}.cls-4{fill:#001738;}.cls-5{fill:#007cc3;}</style><clipPath id="clip-path"><rect class="cls-1" x="-270.57" y="-79.43" width="612" height="792"/></clipPath></defs><title>social</title><g class="cls-2"><polygon class="cls-3" points="-279.07 -87.94 -279.07 721.07 341.43 721.07 341.43 -87.94 -279.07 -87.94 -279.07 -87.94"/></g><polygon class="cls-4" points="0 56.69 56.69 56.69 56.69 0 0 0 0 56.69 0 56.69"/><path class="cls-3" d="M13.58,29.53V27.16A13.58,13.58,0,0,0,27.16,13.58h2.37A13.58,13.58,0,0,0,43.11,27.16v2.37A13.58,13.58,0,0,0,29.53,43.11H27.16A13.58,13.58,0,0,0,13.58,29.53Z"/><path class="cls-3" d="M43.11,29.53A13.58,13.58,0,1,1,29.53,43.11H43.11V29.53Z"/><path class="cls-5" d="M43.11,29.53V43.11H29.53A13.58,13.58,0,0,1,43.11,29.53Z"/><path class="cls-3" d="M13.58,29.53V43.11H27.16A13.58,13.58,0,1,1,13.58,29.53Z"/><path class="cls-5" d="M13.58,29.53A13.58,13.58,0,0,1,27.16,43.11H13.58V29.53Z"/><path class="cls-3" d="M29.53,13.58A13.58,13.58,0,1,1,43.11,27.16V13.58Z"/><path class="cls-5" d="M29.53,13.58H43.11V27.16A13.58,13.58,0,0,1,29.53,13.58Z"/><path class="cls-3" d="M13.58,27.16A13.58,13.58,0,1,1,27.16,13.58H13.58V27.16Z"/><path class="cls-5" d="M13.58,27.16V13.58H27.16A13.58,13.58,0,0,1,13.58,27.16Z"/></svg>