<svg id="Layer_1" data-name="Layer 1" xmlns="http://www.w3.org/2000/svg" width="800" height="500" viewBox="0 0 800 500"><defs><style>.cls-1{fill:#079176;}</style></defs><title>students</title><path class="cls-1" d="M797.13,345.94c-2.24,7.94-4.58,15.86-6.69,23.84-4.6,17.35-9.09,34.73-13.6,52.1a26,26,0,0,0-.36,2.62l19.5,5.16-36.58,37.7-14.35-50.5,20.07,4.95c5.94-22.84,11.83-45.46,17.94-68.95-6.15-1.26-12.12-2.7-18.16-3.69-29.34-4.79-58.53-5-87.41,3.1a122.68,122.68,0,0,0-36.28,16.59,6.93,6.93,0,0,0-2.74,4.85c-.15,37-.12,74-.11,111,0,.58.1,1.16.2,2.28h114v11.47H508.11c-4.87-19.11-9.7-38.24-14.64-57.34q-12.11-46.75-24.31-93.48c-.18-.69-.22-1.42-.49-3.3,11.66-2.47,23.18-5.08,34.78-7.27a165.51,165.51,0,0,1,17.25-2c2.4-.2,3.68-1,4.24-3.48,2.42-10.73,7.31-20.32,13.7-29.23a6.36,6.36,0,0,0,.58-5c-3.78-10.62-.65-21.51,8.24-27.7s20.34-5.16,29.15,2.4a7.4,7.4,0,0,0,5,1.19c7.66-.75,15.28-2.48,22.92-2.57,22.14-.26,44.33-.68,66.42.41,34.71,1.72,62.51,26.19,70.19,60.06.33,1.46,2,3.65,3.2,3.74A253.12,253.12,0,0,1,797.13,345Zm-314.69,7c.28,1.23.43,1.94.61,2.63q16.62,64.2,33.2,128.43c.83,3.23,2.77,3.17,5.25,3.17q50.4-.06,100.79,0c1.42,0,2.84-.16,4.21-.25a12.38,12.38,0,0,0,.29-1.7q0-56-.08-111.93a6.31,6.31,0,0,0-2.65-4.46A142,142,0,0,0,609,360.24c-24.3-11.56-50.16-15-76.77-14.27A231.69,231.69,0,0,0,482.44,353Zm52.43-18.61h5.43c32.3.07,62.73,6.94,90.07,24.88,2.37,1.56,3.75.48,5.51-.65a147.55,147.55,0,0,1,63.18-22.45c10.14-1.22,20.38-1.62,30.84-2.42-.35-1.47-.7-3.2-1.2-4.89-8.19-27.9-34.23-46.78-64.94-46.93-20.65-.1-41.3-.19-62,.09-6.14.08-12.27,1.45-18.53,2.24.78,10.06-2,17.89-9.81,23.26s-16.41,4.92-25.8.67C543.49,316.71,539.44,325,534.87,334.34ZM560.54,277a11.57,11.57,0,0,0-.26,23.14,11.57,11.57,0,1,0,.26-23.14Z"/><path class="cls-1" d="M641.92,118.47l8,2c36.25,9,59.18,44.88,52.52,82.12-6.48,36.19-41.07,61.75-77.86,57.53-34.2-3.92-62-33.18-63-66.32-1.12-37.55,22.78-67.8,58.76-74.41a19,19,0,0,0,2.78-.94Zm50.22,71.4c.53-32.14-25.95-59.43-58.16-60-32.78-.52-60.36,25.35-60.89,57.14-.58,34.47,25.41,61.73,59.2,62.08C664.84,249.48,691.6,223,692.14,189.87Z"/></svg>