<svg id="ICONS" xmlns="http://www.w3.org/2000/svg" width="100" height="116.67" viewBox="0 0 100 116.67"><defs><style>.cls-1{fill:none;stroke:#000;stroke-miterlimit:10;stroke-width:3px;}</style></defs><title>Our workplaces 2</title><circle class="cls-1" cx="29" cy="31.23" r="8.24"/><path class="cls-1" d="M32,75H49.16A14.32,14.32,0,0,1,63.49,89.32v16.83H54.24V91.45A6.45,6.45,0,0,0,47.79,85H28a7.82,7.82,0,0,1-7.82-7.82V51.08a6.52,6.52,0,0,1,6.52-6.52h6.56L50,57.38H60.73A4.26,4.26,0,0,1,65,61.64v3.88H45L33.33,56"/><line class="cls-1" x1="37.8" y1="60" x2="37.8" y2="75"/><line class="cls-1" x1="75.16" y1="24.67" x2="75.16" y2="59.19"/><polyline class="cls-1" points="75.16 41.33 83.33 41.33 83.33 66.33"/><line class="cls-1" x1="49.82" y1="65.52" x2="95.99" y2="65.52"/><line class="cls-1" x1="88.99" y1="65.52" x2="88.99" y2="106.15"/><polyline class="cls-1" points="12.57 42.78 12.57 84.83 39.49 84.83"/><polygon points="6.59 44.53 12.57 34.17 18.56 44.53 6.59 44.53"/><line class="cls-1" x1="28.02" y1="85" x2="28.02" y2="106.15"/></svg>